<svg xmlns="http://www.w3.org/2000/svg" width="24" height="24" fill="none" viewBox="0 0 24 24"><path fill="#000" fill-rule="evenodd" d="M4.35547 4.23102C6.35269 2.83296 9.05856 2 12 2C14.9414 2 17.6473 2.83296 19.6445 4.23102C21.6386 5.62687 23 7.65113 23 10C23 12.1259 21.8818 13.9912 20.1912 15.3578C18.6091 16.6367 16.4847 17.5208 14.117 17.8534C13.6137 18.5864 12.9737 19.2194 12.2289 19.7159L10.5547 20.8321C10.1774 21.0836 9.67813 21.0498 9.3382 20.7497C8.99827 20.4496 8.90279 19.9583 9.10557 19.5528C9.3823 18.9993 9.50237 18.3903 9.4657 17.7886C7.24262 17.4109 5.25463 16.5427 3.76007 15.3181C2.09685 13.9554 1 12.1053 1 10C1 7.65113 2.3614 5.62687 4.35547 4.23102ZM17 8C17.1139 8 17.3394 8.06927 17.5822 8.43338C17.8202 8.7905 18 9.34146 18 10C18 10.6585 17.8202 11.2095 17.5822 11.5666C17.3394 11.9307 17.1139 12 17 12V14C17.9907 14 18.7651 13.3977 19.2463 12.676C19.732 11.9474 20 10.9983 20 10C20 9.00168 19.732 8.05265 19.2463 7.32398C18.7651 6.6023 17.9907 6 17 6V8Z" clip-rule="evenodd"/></svg>