<?xml version="1.0" encoding="UTF-8"?>
<!DOCTYPE svg PUBLIC "-//W3C//DTD SVG 1.1//EN" "http://www.w3.org/Graphics/SVG/1.1/DTD/svg11.dtd">
<svg xmlns="http://www.w3.org/2000/svg" version="1.1" width="666px" height="375px" style="shape-rendering:geometricPrecision; text-rendering:geometricPrecision; image-rendering:optimizeQuality; fill-rule:evenodd; clip-rule:evenodd" xmlns:xlink="http://www.w3.org/1999/xlink">
<g><path style="opacity:1" fill="#75af4d" d="M 339.5,55.5 C 339.427,57.0269 340.094,58.0269 341.5,58.5C 343.674,61.5154 345.341,64.8487 346.5,68.5C 347.334,69.7479 348.667,70.4146 350.5,70.5C 353.492,70.9657 356.492,71.2991 359.5,71.5C 362.354,71.9239 365.021,72.9239 367.5,74.5C 369.955,72.7033 372.622,71.37 375.5,70.5C 377.027,70.573 378.027,69.9063 378.5,68.5C 380.027,68.573 381.027,67.9063 381.5,66.5C 381.897,65.475 382.563,65.3083 383.5,66C 386.551,68.7143 389.218,71.7143 391.5,75C 388.874,80.4238 385.874,85.5904 382.5,90.5C 382.427,92.0269 383.094,93.0269 384.5,93.5C 384.926,97.4268 385.926,101.093 387.5,104.5C 388.165,106.369 388.831,108.369 389.5,110.5C 391.85,111.861 394.184,113.194 396.5,114.5C 396.821,116.048 397.821,116.715 399.5,116.5C 400.492,116.328 401.158,116.662 401.5,117.5C 402.301,119.042 402.634,120.708 402.5,122.5C 402.38,125.48 401.713,128.313 400.5,131C 394.521,130.67 388.521,130.67 382.5,131C 379,137.167 374.167,142 368,145.5C 368.639,151.491 368.473,157.491 367.5,163.5C 363.597,165.086 359.597,165.919 355.5,166C 352.907,161.59 350.574,157.09 348.5,152.5C 348.179,150.952 347.179,150.285 345.5,150.5C 342.941,150.802 340.607,150.468 338.5,149.5C 336.485,148.076 334.152,147.41 331.5,147.5C 330.508,147.672 329.842,147.338 329.5,146.5C 328.01,144.72 326.01,144.054 323.5,144.5C 323.5,145.5 323.5,146.5 323.5,147.5C 320.434,149.89 317.1,151.89 313.5,153.5C 312.167,153.167 310.833,152.833 309.5,152.5C 307.833,151.5 306.5,150.167 305.5,148.5C 304.962,146.883 304.629,145.216 304.5,143.5C 304.328,142.508 304.662,141.842 305.5,141.5C 306.906,141.027 307.573,140.027 307.5,138.5C 308.906,138.027 309.573,137.027 309.5,135.5C 310.455,133.254 311.122,130.921 311.5,128.5C 311.34,126.847 310.674,125.514 309.5,124.5C 308.604,119.353 307.604,114.353 306.5,109.5C 302.849,108.341 299.515,106.674 296.5,104.5C 296.027,103.094 295.027,102.427 293.5,102.5C 292.508,102.672 291.842,102.338 291.5,101.5C 292.697,97.9054 293.697,94.2388 294.5,90.5C 300.69,90.8229 306.69,90.4896 312.5,89.5C 313.906,89.0269 314.573,88.0269 314.5,86.5C 316.587,85.4154 317.92,83.7488 318.5,81.5C 320.749,80.9202 322.415,79.5869 323.5,77.5C 325.027,77.573 326.027,76.9063 326.5,75.5C 327.167,69.6535 327.833,63.6535 328.5,57.5C 329.739,57.0576 330.739,56.3909 331.5,55.5C 333.608,54.7626 335.775,54.096 338,53.5C 339.03,53.8361 339.53,54.5028 339.5,55.5 Z M 358.5,95.5 C 359.263,97.3684 360.263,99.0351 361.5,100.5C 363.035,106.946 362.701,113.28 360.5,119.5C 359.094,119.973 358.427,120.973 358.5,122.5C 356.973,122.427 355.973,123.094 355.5,124.5C 354.508,124.328 353.842,124.662 353.5,125.5C 349.153,126.674 344.819,126.674 340.5,125.5C 339.71,124.599 338.71,123.932 337.5,123.5C 336.5,121.833 335.167,120.5 333.5,119.5C 333.204,117.597 332.537,115.93 331.5,114.5C 330.601,93.4745 339.601,87.1411 358.5,95.5 Z"/></g>
<g><path style="opacity:0.247" fill="#d6e7c9" d="M 339.5,55.5 C 340.906,55.9731 341.573,56.9731 341.5,58.5C 340.094,58.0269 339.427,57.0269 339.5,55.5 Z"/></g>
<g><path style="opacity:0.706" fill="#bedaab" d="M 381.5,66.5 C 381.027,67.9063 380.027,68.573 378.5,68.5C 378.973,67.0937 379.973,66.427 381.5,66.5 Z"/></g>
<g><path style="opacity:0.175" fill="#d6e7ca" d="M 331.5,55.5 C 330.739,56.3909 329.739,57.0576 328.5,57.5C 327.833,63.6535 327.167,69.6535 326.5,75.5C 326.17,69.1318 326.504,62.7985 327.5,56.5C 328.736,55.7542 330.07,55.4208 331.5,55.5 Z"/></g>
<g><path style="opacity:0.647" fill="#b8d6a3" d="M 346.5,68.5 C 351.012,69.0971 355.345,70.0971 359.5,71.5C 356.492,71.2991 353.492,70.9657 350.5,70.5C 348.667,70.4146 347.334,69.7479 346.5,68.5 Z"/></g>
<g><path style="opacity:0.796" fill="#b1d299" d="M 378.5,68.5 C 378.027,69.9063 377.027,70.573 375.5,70.5C 375.973,69.0937 376.973,68.427 378.5,68.5 Z"/></g>
<g><path style="opacity:0.769" fill="#b5d5a0" d="M 326.5,75.5 C 326.027,76.9063 325.027,77.573 323.5,77.5C 323.973,76.0937 324.973,75.427 326.5,75.5 Z"/></g>
<g><path style="opacity:0.792" fill="#b8d6a3" d="M 323.5,77.5 C 322.415,79.5869 320.749,80.9202 318.5,81.5C 319.585,79.4131 321.251,78.0798 323.5,77.5 Z"/></g>
<g><path style="opacity:0.596" fill="#c8dfb7" d="M 318.5,81.5 C 317.92,83.7488 316.587,85.4154 314.5,86.5C 315.08,84.2512 316.413,82.5846 318.5,81.5 Z"/></g>
<g><path style="opacity:0.416" fill="#cae0ba" d="M 314.5,86.5 C 314.573,88.0269 313.906,89.0269 312.5,89.5C 312.427,87.9731 313.094,86.9731 314.5,86.5 Z"/></g>
<g><path style="opacity:0.361" fill="#bed9aa" d="M 312.5,89.5 C 306.69,90.4896 300.69,90.8229 294.5,90.5C 293.697,94.2388 292.697,97.9054 291.5,101.5C 291.247,97.0451 292.414,92.7117 295,88.5C 300.741,89.4749 306.575,89.8082 312.5,89.5 Z"/></g>
<g><path style="opacity:0.255" fill="#d4e6c6" d="M 382.5,90.5 C 383.906,90.9731 384.573,91.9731 384.5,93.5C 383.094,93.0269 382.427,92.0269 382.5,90.5 Z"/></g>
<g><path style="opacity:0.98" fill="#b8d5a2" d="M 358.5,95.5 C 360.741,96.2998 361.741,97.9664 361.5,100.5C 360.263,99.0351 359.263,97.3684 358.5,95.5 Z"/></g>
<g><path style="opacity:1" fill="#7cb356" d="M 336.5,100.5 C 337.906,100.027 338.573,99.0269 338.5,97.5C 344.83,92.0505 350.997,92.3838 357,98.5C 360.333,105.5 360.333,112.5 357,119.5C 352.033,123.682 346.533,124.516 340.5,122C 334.882,117.071 333.049,110.905 335,103.5C 335.232,102.263 335.732,101.263 336.5,100.5 Z"/></g>
<g><path style="opacity:0.784" fill="#c3dcb1" d="M 384.5,93.5 C 386.483,96.7994 387.483,100.466 387.5,104.5C 385.926,101.093 384.926,97.4268 384.5,93.5 Z"/></g>
<g><path style="opacity:0.608" fill="#b4d39c" d="M 338.5,97.5 C 338.573,99.0269 337.906,100.027 336.5,100.5C 336.427,98.9731 337.094,97.9731 338.5,97.5 Z"/></g>
<g><path style="opacity:0.267" fill="#d3e6c6" d="M 293.5,102.5 C 295.027,102.427 296.027,103.094 296.5,104.5C 294.973,104.573 293.973,103.906 293.5,102.5 Z"/></g>
<g><path style="opacity:0.898" fill="#b6d49f" d="M 396.5,114.5 C 397.71,114.932 398.71,115.599 399.5,116.5C 397.821,116.715 396.821,116.048 396.5,114.5 Z"/></g>
<g><path style="opacity:0.933" fill="#afd097" d="M 331.5,114.5 C 332.537,115.93 333.204,117.597 333.5,119.5C 331.787,118.365 331.12,116.698 331.5,114.5 Z"/></g>
<g><path style="opacity:0.482" fill="#cfe3c1" d="M 401.5,117.5 C 402.649,117.791 403.316,118.624 403.5,120C 403.472,121.07 403.139,121.903 402.5,122.5C 402.634,120.708 402.301,119.042 401.5,117.5 Z"/></g>
<g><path style="opacity:0.784" fill="#c8dfb7" d="M 333.5,119.5 C 335.167,120.5 336.5,121.833 337.5,123.5C 335.167,123.167 333.833,121.833 333.5,119.5 Z"/></g>
<g><path style="opacity:0.698" fill="#c6deb4" d="M 360.5,119.5 C 360.573,121.027 359.906,122.027 358.5,122.5C 358.427,120.973 359.094,119.973 360.5,119.5 Z"/></g>
<g><path style="opacity:0.725" fill="#b9d6a3" d="M 358.5,122.5 C 358.027,123.906 357.027,124.573 355.5,124.5C 355.973,123.094 356.973,122.427 358.5,122.5 Z"/></g>
<g><path style="opacity:0.259" fill="#e6f0df" d="M 306.5,109.5 C 307.604,114.353 308.604,119.353 309.5,124.5C 310.674,125.514 311.34,126.847 311.5,128.5C 306.286,127.196 300.952,126.363 295.5,126C 291.453,123.723 291.786,122.056 296.5,121C 299.833,120.667 303.167,120.333 306.5,120C 306.746,116.651 306.746,113.151 306.5,109.5 Z M 309.5,124.5 C 309.265,125.097 308.765,125.43 308,125.5C 304.671,125.032 301.505,124.199 298.5,123C 302.492,122.039 306.159,122.539 309.5,124.5 Z"/></g>
<g><path style="opacity:0.925" fill="#b6d49f" d="M 337.5,123.5 C 338.71,123.932 339.71,124.599 340.5,125.5C 338.821,125.715 337.821,125.048 337.5,123.5 Z"/></g>
<g><path style="opacity:0.659" fill="#b7d5a1" d="M 340.5,125.5 C 344.819,126.674 349.153,126.674 353.5,125.5C 349.148,128.061 344.815,128.061 340.5,125.5 Z"/></g>
<g><path style="opacity:1" fill="#54c690" d="M 287.5,140.5 C 287.781,144.188 288.281,147.855 289,151.5C 289.383,152.056 289.883,152.389 290.5,152.5C 290.821,154.048 291.821,154.715 293.5,154.5C 299.99,156.691 305.99,159.691 311.5,163.5C 314.152,163.59 316.485,162.924 318.5,161.5C 321.598,161.244 324.598,160.578 327.5,159.5C 327.5,159.833 327.5,160.167 327.5,160.5C 327.427,162.027 328.094,163.027 329.5,163.5C 330.737,164.965 331.737,166.632 332.5,168.5C 332.443,169.609 332.11,170.609 331.5,171.5C 328.5,175.167 325.167,178.5 321.5,181.5C 320.414,181.62 319.747,182.287 319.5,183.5C 319.543,184.416 319.876,185.083 320.5,185.5C 320.294,192.043 320.294,198.377 320.5,204.5C 323.5,207.167 326.5,209.833 329.5,212.5C 330.5,214.5 331.5,216.5 332.5,218.5C 331.32,221.54 329.653,224.206 327.5,226.5C 324.833,226.167 322.167,225.833 319.5,225.5C 316.037,223.109 312.371,222.442 308.5,223.5C 303.875,228.429 298.208,231.762 291.5,233.5C 289.642,239.3 287.975,245.133 286.5,251C 282.167,251.667 277.833,251.667 273.5,251C 272.287,248.313 271.62,245.48 271.5,242.5C 271.58,239.219 270.913,236.219 269.5,233.5C 266.673,232.892 264.007,231.892 261.5,230.5C 261.027,229.094 260.027,228.427 258.5,228.5C 258.027,227.094 257.027,226.427 255.5,226.5C 254.738,224.738 253.404,223.738 251.5,223.5C 245.343,224.54 239.343,226.206 233.5,228.5C 231.075,225.411 229.075,222.078 227.5,218.5C 228.754,215.907 230.42,213.573 232.5,211.5C 235.394,210.118 237.894,208.118 240,205.5C 240.74,204.251 240.573,203.251 239.5,202.5C 238.167,196.5 238.167,190.5 239.5,184.5C 240.821,181.765 239.821,180.098 236.5,179.5C 233.5,177.167 230.833,174.5 228.5,171.5C 227.89,170.609 227.557,169.609 227.5,168.5C 228.901,165.366 230.568,162.366 232.5,159.5C 234.435,160.15 236.435,160.483 238.5,160.5C 242.422,161.106 246.255,162.106 250,163.5C 255.359,158.736 261.525,155.403 268.5,153.5C 270.256,152.448 270.923,150.781 270.5,148.5C 270.216,146.585 270.549,144.919 271.5,143.5C 273.163,141.562 273.829,139.228 273.5,136.5C 277.646,135.353 281.98,135.186 286.5,136C 287.38,137.356 287.714,138.856 287.5,140.5 Z M 285.5,174.5 C 287.043,176.557 288.043,176.557 288.5,174.5C 289.609,174.557 290.609,174.89 291.5,175.5C 290.927,178.147 290.26,180.813 289.5,183.5C 288.935,181.456 287.935,179.79 286.5,178.5C 282.619,175.925 278.952,176.258 275.5,179.5C 274.094,179.973 273.427,180.973 273.5,182.5C 272.224,185.03 272.224,187.697 273.5,190.5C 276.801,192.984 280.467,194.651 284.5,195.5C 285.167,196.833 286.167,197.833 287.5,198.5C 288.932,204.054 286.932,207.388 281.5,208.5C 278.794,208.425 276.127,208.092 273.5,207.5C 273.5,209.167 273.5,210.833 273.5,212.5C 272.5,212.5 271.5,212.5 270.5,212.5C 270.372,208.119 270.705,203.785 271.5,199.5C 272.975,201.007 274.309,202.673 275.5,204.5C 278.049,206.605 280.715,206.605 283.5,204.5C 286.167,202.833 286.167,201.167 283.5,199.5C 279.778,197.071 275.778,194.904 271.5,193C 267.308,180.233 271.975,174.067 285.5,174.5 Z"/></g>
<g><path style="opacity:0.467" fill="#c1dcaf" d="M 309.5,135.5 C 309.573,137.027 308.906,138.027 307.5,138.5C 307.427,136.973 308.094,135.973 309.5,135.5 Z"/></g>
<g><path style="opacity:0.855" fill="#a8e2c5" d="M 273.5,136.5 C 273.829,139.228 273.163,141.562 271.5,143.5C 271.721,140.933 272.388,138.599 273.5,136.5 Z"/></g>
<g><path style="opacity:0.333" fill="#d0e4c3" d="M 307.5,138.5 C 307.573,140.027 306.906,141.027 305.5,141.5C 305.427,139.973 306.094,138.973 307.5,138.5 Z"/></g>
<g><path style="opacity:0.8" fill="#a3e0c1" d="M 287.5,140.5 C 288.992,144.264 289.992,148.264 290.5,152.5C 289.883,152.389 289.383,152.056 289,151.5C 288.281,147.855 287.781,144.188 287.5,140.5 Z"/></g>
<g><path style="opacity:0.759" fill="#c4ddb3" d="M 304.5,143.5 C 304.629,145.216 304.962,146.883 305.5,148.5C 302.274,147.123 301.941,145.457 304.5,143.5 Z"/></g>
<g><path style="opacity:1" fill="#a8cc8d" d="M 329.5,146.5 C 327.423,145.477 325.423,145.81 323.5,147.5C 323.5,146.5 323.5,145.5 323.5,144.5C 326.01,144.054 328.01,144.72 329.5,146.5 Z"/></g>
<g><path style="opacity:0.769" fill="#c1dbae" d="M 331.5,147.5 C 334.152,147.41 336.485,148.076 338.5,149.5C 335.848,149.59 333.515,148.924 331.5,147.5 Z"/></g>
<g><path style="opacity:0.471" fill="#bfead5" d="M 270.5,148.5 C 270.923,150.781 270.256,152.448 268.5,153.5C 269.024,151.694 269.691,150.028 270.5,148.5 Z"/></g>
<g><path style="opacity:0.078" fill="#e9f2e3" d="M 345.5,150.5 C 347.179,150.285 348.179,150.952 348.5,152.5C 347.29,152.068 346.29,151.401 345.5,150.5 Z"/></g>
<g><path style="opacity:0.722" fill="#b6e6ce" d="M 290.5,152.5 C 291.71,152.932 292.71,153.599 293.5,154.5C 291.821,154.715 290.821,154.048 290.5,152.5 Z"/></g>
<g><path style="opacity:0.471" fill="#cbe1bb" d="M 309.5,152.5 C 310.833,152.833 312.167,153.167 313.5,153.5C 311.872,154.853 310.538,154.519 309.5,152.5 Z"/></g>
<g><path style="opacity:0.502" fill="#c1ead6" d="M 232.5,159.5 C 234.598,158.516 236.598,158.849 238.5,160.5C 236.435,160.483 234.435,160.15 232.5,159.5 Z"/></g>
<g><path style="opacity:0.835" fill="#a5e1c3" d="M 327.5,159.5 C 324.598,160.578 321.598,161.244 318.5,161.5C 320.78,160.233 323.28,159.233 326,158.5C 326.765,158.57 327.265,158.903 327.5,159.5 Z"/></g>
<g><path style="opacity:0.745" fill="#aae3c7" d="M 318.5,161.5 C 316.485,162.924 314.152,163.59 311.5,163.5C 313.515,162.076 315.848,161.41 318.5,161.5 Z"/></g>
<g><path style="opacity:0.325" fill="#c1ead6" d="M 327.5,160.5 C 328.906,160.973 329.573,161.973 329.5,163.5C 328.094,163.027 327.427,162.027 327.5,160.5 Z"/></g>
<g><path style="opacity:0.165" fill="#e2f5ec" d="M 227.5,168.5 C 227.557,169.609 227.89,170.609 228.5,171.5C 226.448,170.947 226.115,169.947 227.5,168.5 Z"/></g>
<g><path style="opacity:0.012" fill="#e6f6ee" d="M 332.5,168.5 C 333.885,169.947 333.552,170.947 331.5,171.5C 332.11,170.609 332.443,169.609 332.5,168.5 Z"/></g>
<g><path style="opacity:0.043" fill="#e5f7ee" d="M 288.5,174.5 C 289.947,173.115 290.947,173.448 291.5,175.5C 290.609,174.89 289.609,174.557 288.5,174.5 Z"/></g>
<g><path style="opacity:0.711" fill="#b5d0eb" d="M 407.5,181.5 C 406.388,179.401 405.721,177.067 405.5,174.5C 401.069,174.231 396.735,174.564 392.5,175.5C 392.5,174.5 392.5,173.5 392.5,172.5C 396.846,172.334 401.179,172.501 405.5,173C 407.179,175.565 407.846,178.398 407.5,181.5 Z"/></g>
<g><path style="opacity:0.478" fill="#c6ecd9" d="M 285.5,174.5 C 286.5,174.5 287.5,174.5 288.5,174.5C 288.043,176.557 287.043,176.557 285.5,174.5 Z"/></g>
<g><path style="opacity:1" fill="#5e9cd5" d="M 407.5,181.5 C 408.461,183.265 408.795,185.265 408.5,187.5C 408.5,188.5 408.5,189.5 408.5,190.5C 409.833,190.5 411.167,190.5 412.5,190.5C 412.833,190.5 413.167,190.5 413.5,190.5C 414.469,191.309 415.302,192.309 416,193.5C 417.356,192.62 418.856,192.286 420.5,192.5C 423.912,193.075 426.912,194.408 429.5,196.5C 432.087,200.473 434.754,200.139 437.5,195.5C 439.219,192.781 441.553,190.781 444.5,189.5C 446.685,189.704 448.685,190.37 450.5,191.5C 452.509,193.169 454.509,194.836 456.5,196.5C 453.833,201.167 451.167,205.833 448.5,210.5C 453.42,216.092 457.087,222.425 459.5,229.5C 459.286,231.144 459.62,232.644 460.5,234C 466.157,234.499 471.824,234.666 477.5,234.5C 477.232,236.099 477.566,237.432 478.5,238.5C 479.459,241.128 479.959,243.794 480,246.5C 475.686,248.66 471.186,250.327 466.5,251.5C 465.5,251.5 464.5,251.5 463.5,251.5C 463.5,255.833 463.5,260.167 463.5,264.5C 463.5,265.167 463.5,265.833 463.5,266.5C 461.801,269.738 460.468,273.238 459.5,277C 459.57,277.765 459.903,278.265 460.5,278.5C 464.458,281.285 468.291,284.285 472,287.5C 470.962,292.244 468.795,296.577 465.5,300.5C 460.414,297.857 455.081,296.357 449.5,296C 444.236,302.266 438.069,307.433 431,311.5C 431.792,315.378 432.292,319.378 432.5,323.5C 432.635,325.554 431.968,327.221 430.5,328.5C 426.715,328.631 423.048,329.298 419.5,330.5C 417.234,326.966 415.234,323.3 413.5,319.5C 413.209,318.351 412.376,317.684 411,317.5C 409.93,317.528 409.097,317.861 408.5,318.5C 407.833,318.5 407.167,318.5 406.5,318.5C 400.807,318.626 395.14,318.293 389.5,317.5C 387.667,317.585 386.334,318.252 385.5,319.5C 384,323.173 382,326.506 379.5,329.5C 377.958,330.301 376.292,330.634 374.5,330.5C 372.035,330.233 369.701,329.566 367.5,328.5C 366.699,326.958 366.366,325.292 366.5,323.5C 366.5,323.167 366.5,322.833 366.5,322.5C 368.489,318.598 368.823,314.598 367.5,310.5C 366.078,310.291 364.745,309.791 363.5,309C 360.712,307.281 358.379,305.115 356.5,302.5C 355.738,300.738 354.404,299.738 352.5,299.5C 351.236,297.73 349.736,296.063 348,294.5C 344.688,296.326 341.188,297.66 337.5,298.5C 335.379,298.675 333.379,298.341 331.5,297.5C 329.223,295.126 327.556,292.293 326.5,289C 329.97,285.201 333.803,281.701 338,278.5C 337.435,275.596 336.935,272.596 336.5,269.5C 336.032,263.671 335.365,258.004 334.5,252.5C 332.824,250.166 330.491,249.166 327.5,249.5C 325.214,249.405 323.214,248.738 321.5,247.5C 320.586,244.272 320.253,240.939 320.5,237.5C 321.404,236.791 321.737,235.791 321.5,234.5C 327.026,234.821 332.36,234.488 337.5,233.5C 338.799,228.236 341.132,223.569 344.5,219.5C 345.906,219.027 346.573,218.027 346.5,216.5C 347.906,216.027 348.573,215.027 348.5,213.5C 348.953,212.542 349.619,211.708 350.5,211C 348.347,207.192 346.347,203.358 344.5,199.5C 344.253,197.142 344.919,195.142 346.5,193.5C 348.948,191.716 351.615,190.382 354.5,189.5C 358.188,192.351 362.021,195.018 366,197.5C 369.13,196.016 372.297,194.683 375.5,193.5C 379.162,193.277 382.495,192.277 385.5,190.5C 387.408,190.117 388.908,189.117 390,187.5C 390.528,183.301 391.361,179.301 392.5,175.5C 396.735,174.564 401.069,174.231 405.5,174.5C 405.721,177.067 406.388,179.401 407.5,181.5 Z M 367.5,233.5 C 372.754,233.916 378.087,233.916 383.5,233.5C 390.323,234.99 394.99,238.99 397.5,245.5C 397.779,250.327 397.113,254.993 395.5,259.5C 393.5,260.833 391.833,262.5 390.5,264.5C 388.597,264.796 386.93,265.463 385.5,266.5C 380.32,266.847 375.32,267.513 370.5,268.5C 368.821,268.715 367.821,268.048 367.5,266.5C 369.948,257.179 369.948,247.845 367.5,238.5C 366.438,236.901 366.438,235.234 367.5,233.5 Z M 406.5,233.5 C 407.5,234.833 408.5,234.833 409.5,233.5C 415.747,233.217 421.747,234.217 427.5,236.5C 429.555,238.555 431.221,240.888 432.5,243.5C 433.244,247.119 433.577,250.785 433.5,254.5C 432.463,255.93 431.796,257.597 431.5,259.5C 429.5,260.833 427.833,262.5 426.5,264.5C 422.565,265.754 418.565,266.754 414.5,267.5C 410.766,267.323 407.099,267.656 403.5,268.5C 403.5,267.833 403.5,267.167 403.5,266.5C 405.844,257.189 405.844,247.856 403.5,238.5C 402.89,237.609 402.557,236.609 402.5,235.5C 403.467,234.194 404.801,233.527 406.5,233.5 Z"/></g>
<g><path style="opacity:0.835" fill="#a3e0c1" d="M 286.5,178.5 C 282.766,178.323 279.099,178.656 275.5,179.5C 278.952,176.258 282.619,175.925 286.5,178.5 Z"/></g>
<g><path style="opacity:0.655" fill="#bbe8d2" d="M 236.5,179.5 C 239.821,180.098 240.821,181.765 239.5,184.5C 238.925,182.589 237.925,180.922 236.5,179.5 Z"/></g>
<g><path style="opacity:0.467" fill="#b4e6ce" d="M 275.5,179.5 C 275.573,181.027 274.906,182.027 273.5,182.5C 273.427,180.973 274.094,179.973 275.5,179.5 Z"/></g>
<g><path style="opacity:0.573" fill="#b1e5cc" d="M 321.5,181.5 C 320.766,182.708 320.433,184.041 320.5,185.5C 319.876,185.083 319.543,184.416 319.5,183.5C 319.747,182.287 320.414,181.62 321.5,181.5 Z"/></g>
<g><path style="opacity:0.824" fill="#c1d8ef" d="M 450.5,191.5 C 448.685,190.37 446.685,189.704 444.5,189.5C 444.783,188.711 445.283,188.044 446,187.5C 447.992,188.328 449.492,189.661 450.5,191.5 Z"/></g>
<g><path style="opacity:0.294" fill="#d9e7f5" d="M 408.5,187.5 C 409.74,188.659 411.074,189.659 412.5,190.5C 411.167,190.5 409.833,190.5 408.5,190.5C 408.5,189.5 408.5,188.5 408.5,187.5 Z"/></g>
<g><path style="opacity:0.831" fill="#a0c3e6" d="M 354.5,189.5 C 351.615,190.382 348.948,191.716 346.5,193.5C 348.17,190.998 350.336,188.998 353,187.5C 353.717,188.044 354.217,188.711 354.5,189.5 Z"/></g>
<g><path style="opacity:0.761" fill="#b1ceea" d="M 385.5,190.5 C 382.495,192.277 379.162,193.277 375.5,193.5C 378.505,191.723 381.838,190.723 385.5,190.5 Z"/></g>
<g><path style="opacity:0.537" fill="#bee9d5" d="M 320.5,185.5 C 321.726,191.691 321.726,198.024 320.5,204.5C 320.294,198.377 320.294,192.043 320.5,185.5 Z"/></g>
<g><path style="opacity:1" fill="#a1c2e6" d="M 413.5,190.5 C 416.067,190.721 418.401,191.388 420.5,192.5C 418.856,192.286 417.356,192.62 416,193.5C 415.302,192.309 414.469,191.309 413.5,190.5 Z"/></g>
<g><path style="opacity:0.647" fill="#bde9d3" d="M 284.5,195.5 C 286.5,195.5 287.5,196.5 287.5,198.5C 286.167,197.833 285.167,196.833 284.5,195.5 Z"/></g>
<g><path style="opacity:0.957" fill="#a8c8e8" d="M 346.5,193.5 C 344.919,195.142 344.253,197.142 344.5,199.5C 341.687,196.6 342.353,194.6 346.5,193.5 Z"/></g>
<g><path style="opacity:1" fill="#92b9e2" d="M 437.5,195.5 C 434.754,200.139 432.087,200.473 429.5,196.5C 430.695,196.678 431.862,197.011 433,197.5C 434.406,196.586 435.906,195.92 437.5,195.5 Z"/></g>
<g><path style="opacity:0.569" fill="#aae3c7" d="M 283.5,199.5 C 286.167,201.167 286.167,202.833 283.5,204.5C 283.5,202.833 283.5,201.167 283.5,199.5 Z"/></g>
<g><path style="opacity:0.765" fill="#a7e2c4" d="M 275.5,204.5 C 278.167,204.5 280.833,204.5 283.5,204.5C 280.715,206.605 278.049,206.605 275.5,204.5 Z"/></g>
<g><path style="opacity:0.552" fill="#9bdebe" d="M 271.5,199.5 C 270.705,203.785 270.372,208.119 270.5,212.5C 269.355,208.689 269.188,204.689 270,200.5C 270.383,199.944 270.883,199.611 271.5,199.5 Z"/></g>
<g><path style="opacity:0.52" fill="#b1e5cd" d="M 281.5,208.5 C 279.44,209.811 277.274,209.811 275,208.5C 274.79,210.058 274.29,211.391 273.5,212.5C 273.5,210.833 273.5,209.167 273.5,207.5C 276.127,208.092 278.794,208.425 281.5,208.5 Z"/></g>
<g><path style="opacity:0.957" fill="#84d5ad" d="M 239.5,202.5 C 240.573,203.251 240.74,204.251 240,205.5C 237.894,208.118 235.394,210.118 232.5,211.5C 235.239,208.767 237.573,205.767 239.5,202.5 Z"/></g>
<g><path style="opacity:0.482" fill="#c6ecda" d="M 232.5,211.5 C 230.42,213.573 228.754,215.907 227.5,218.5C 226.921,215.011 228.587,212.677 232.5,211.5 Z"/></g>
<g><path style="opacity:0.529" fill="#ceefdf" d="M 329.5,212.5 C 332.569,213.804 333.569,215.804 332.5,218.5C 331.5,216.5 330.5,214.5 329.5,212.5 Z"/></g>
<g><path style="opacity:0.627" fill="#c0d8ee" d="M 348.5,213.5 C 348.573,215.027 347.906,216.027 346.5,216.5C 346.427,214.973 347.094,213.973 348.5,213.5 Z"/></g>
<g><path style="opacity:0.443" fill="#bdd6ee" d="M 346.5,216.5 C 346.573,218.027 345.906,219.027 344.5,219.5C 344.427,217.973 345.094,216.973 346.5,216.5 Z"/></g>
<g><path style="opacity:0.824" fill="#b4e6cd" d="M 308.5,223.5 C 312.371,222.442 316.037,223.109 319.5,225.5C 315.833,224.833 312.167,224.167 308.5,223.5 Z"/></g>
<g><path style="opacity:0.71" fill="#b8e7d0" d="M 251.5,223.5 C 253.404,223.738 254.738,224.738 255.5,226.5C 253.596,226.262 252.262,225.262 251.5,223.5 Z"/></g>
<g><path style="opacity:0.816" fill="#b6e7cf" d="M 319.5,225.5 C 322.167,225.833 324.833,226.167 327.5,226.5C 327.631,227.376 327.298,228.043 326.5,228.5C 323.984,227.67 321.65,226.67 319.5,225.5 Z"/></g>
<g><path style="opacity:0.502" fill="#b2e5cc" d="M 255.5,226.5 C 257.027,226.427 258.027,227.094 258.5,228.5C 256.973,228.573 255.973,227.906 255.5,226.5 Z"/></g>
<g><path style="opacity:0.271" fill="#c7ecda" d="M 258.5,228.5 C 260.027,228.427 261.027,229.094 261.5,230.5C 259.973,230.573 258.973,229.906 258.5,228.5 Z"/></g>
<g><path style="opacity:0.533" fill="#9fc3e6" d="M 367.5,233.5 C 372.833,232.167 378.167,232.167 383.5,233.5C 378.087,233.916 372.754,233.916 367.5,233.5 Z"/></g>
<g><path style="opacity:0.69" fill="#95bee3" d="M 337.5,233.5 C 332.36,234.488 327.026,234.821 321.5,234.5C 321.737,235.791 321.404,236.791 320.5,237.5C 320.5,236.167 320.5,234.833 320.5,233.5C 326.167,233.5 331.833,233.5 337.5,233.5 Z"/></g>
<g><path style="opacity:0.325" fill="#cde0f2" d="M 406.5,233.5 C 404.801,233.527 403.467,234.194 402.5,235.5C 402.5,234.5 402.5,233.5 402.5,232.5C 404.099,232.232 405.432,232.566 406.5,233.5 Z"/></g>
<g><path style="opacity:1" fill="#8fb9e1" d="M 409.5,233.5 C 415.09,232.285 420.756,232.619 426.5,234.5C 426.863,235.183 427.196,235.85 427.5,236.5C 421.747,234.217 415.747,233.217 409.5,233.5 Z"/></g>
<g><path style="opacity:0.679" fill="#98bfe4" d="M 459.5,229.5 C 460.249,230.531 460.915,231.698 461.5,233C 467.157,233.499 472.824,233.666 478.5,233.5C 478.5,235.167 478.5,236.833 478.5,238.5C 477.566,237.432 477.232,236.099 477.5,234.5C 471.824,234.666 466.157,234.499 460.5,234C 459.62,232.644 459.286,231.144 459.5,229.5 Z"/></g>
<g><path style="opacity:0.051" fill="#d3f0e2" d="M 269.5,233.5 C 270.913,236.219 271.58,239.219 271.5,242.5C 270.087,239.781 269.42,236.781 269.5,233.5 Z"/></g>
<g><path style="opacity:0.999" fill="#65a0d7" d="M 383.5,263.5 C 379.833,263.5 376.167,263.5 372.5,263.5C 372.745,254.792 372.411,246.126 371.5,237.5C 377.544,235.927 383.544,236.427 389.5,239C 394.152,243.536 395.652,249.036 394,255.5C 392.198,260.476 388.698,263.143 383.5,263.5 Z"/></g>
<g><path style="opacity:0.999" fill="#659fd7" d="M 422.5,262.5 C 417.528,263.422 412.528,263.588 407.5,263C 408.761,254.543 408.761,246.043 407.5,237.5C 426.302,233.8 433.136,241.134 428,259.5C 426.512,261.16 424.679,262.16 422.5,262.5 Z"/></g>
<g><path style="opacity:0.89" fill="#b0cdea" d="M 320.5,237.5 C 320.253,240.939 320.586,244.272 321.5,247.5C 319.748,247.582 318.748,246.749 318.5,245C 319.016,242.331 319.683,239.831 320.5,237.5 Z"/></g>
<g><path style="opacity:0.929" fill="#aecbea" d="M 327.5,249.5 C 330.491,249.166 332.824,250.166 334.5,252.5C 331.843,252.065 329.509,251.065 327.5,249.5 Z"/></g>
<g><path style="opacity:0.467" fill="#adccea" d="M 432.5,243.5 C 433.997,245.29 434.664,247.456 434.5,250C 434.492,251.707 434.158,253.207 433.5,254.5C 433.577,250.785 433.244,247.119 432.5,243.5 Z"/></g>
<g><path style="opacity:0.306" fill="#c2d9ef" d="M 407.5,237.5 C 408.761,246.043 408.761,254.543 407.5,263C 412.528,263.588 417.528,263.422 422.5,262.5C 421.737,263.268 420.737,263.768 419.5,264C 415.179,264.499 410.846,264.666 406.5,264.5C 407.364,255.344 407.697,246.344 407.5,237.5 Z"/></g>
<g><path style="opacity:0.8" fill="#adcbe9" d="M 367.5,238.5 C 369.948,247.845 369.948,257.179 367.5,266.5C 367.5,257.167 367.5,247.833 367.5,238.5 Z"/></g>
<g><path style="opacity:0.729" fill="#b1ceea" d="M 403.5,238.5 C 405.844,247.856 405.844,257.189 403.5,266.5C 403.5,257.167 403.5,247.833 403.5,238.5 Z"/></g>
<g><path style="opacity:0.467" fill="#c3daef" d="M 466.5,251.5 C 464.964,255.717 463.964,260.05 463.5,264.5C 463.5,260.167 463.5,255.833 463.5,251.5C 464.5,251.5 465.5,251.5 466.5,251.5 Z"/></g>
<g><path style="opacity:0.976" fill="#9bbfe4" d="M 397.5,245.5 C 398.643,248.976 398.81,252.642 398,256.5C 397.764,258.119 396.931,259.119 395.5,259.5C 396.931,259.119 397.764,258.119 398,256.5C 398.81,252.642 398.643,248.976 397.5,245.5 Z"/></g>
<g><path style="opacity:0.588" fill="#b7d2ec" d="M 395.5,259.5 C 394.833,262.167 393.167,263.833 390.5,264.5C 391.833,262.5 393.5,260.833 395.5,259.5 Z"/></g>
<g><path style="opacity:0.643" fill="#b2cfeb" d="M 431.5,259.5 C 430.833,262.167 429.167,263.833 426.5,264.5C 427.833,262.5 429.5,260.833 431.5,259.5 Z"/></g>
<g><path style="opacity:0.595" fill="#c3daef" d="M 371.5,237.5 C 372.411,246.126 372.745,254.792 372.5,263.5C 376.167,263.5 379.833,263.5 383.5,263.5C 379.317,264.811 374.984,264.811 370.5,263.5C 371.344,254.684 371.678,246.018 371.5,237.5 Z"/></g>
<g><path style="opacity:0.492" fill="#a2c5e7" d="M 385.5,266.5 C 380.783,268.238 375.783,268.904 370.5,268.5C 375.32,267.513 380.32,266.847 385.5,266.5 Z"/></g>
<g><path style="opacity:0.484" fill="#accce9" d="M 414.5,267.5 C 411.491,268.283 408.324,268.95 405,269.5C 404.235,269.43 403.735,269.097 403.5,268.5C 407.099,267.656 410.766,267.323 414.5,267.5 Z"/></g>
<g><path style="opacity:0.047" fill="#cde0f2" d="M 334.5,252.5 C 335.365,258.004 336.032,263.671 336.5,269.5C 335.732,268.737 335.232,267.737 335,266.5C 334.501,261.845 334.334,257.179 334.5,252.5 Z"/></g>
<g><path style="opacity:0.529" fill="#c8ddf0" d="M 463.5,266.5 C 462.812,270.584 461.812,274.584 460.5,278.5C 459.903,278.265 459.57,277.765 459.5,277C 460.468,273.238 461.801,269.738 463.5,266.5 Z"/></g>
<g><path style="opacity:0.82" fill="#c2d8ef" d="M 331.5,297.5 C 333.379,298.341 335.379,298.675 337.5,298.5C 336.359,299.339 335.026,300.006 333.5,300.5C 332.081,299.995 331.415,298.995 331.5,297.5 Z"/></g>
<g><path style="opacity:0.584" fill="#c9ddf1" d="M 352.5,299.5 C 354.404,299.738 355.738,300.738 356.5,302.5C 354.596,302.262 353.262,301.262 352.5,299.5 Z"/></g>
<g><path style="opacity:0.11" fill="#d8e6f4" d="M 408.5,318.5 C 409.097,317.861 409.93,317.528 411,317.5C 412.376,317.684 413.209,318.351 413.5,319.5C 411.958,318.699 410.292,318.366 408.5,318.5 Z"/></g>
<g><path style="opacity:0.22" fill="#d1e2f3" d="M 406.5,318.5 C 399.584,319.181 392.584,319.514 385.5,319.5C 386.334,318.252 387.667,317.585 389.5,317.5C 395.14,318.293 400.807,318.626 406.5,318.5 Z"/></g>
<g><path style="opacity:0.596" fill="#c0d8ee" d="M 367.5,310.5 C 368.823,314.598 368.489,318.598 366.5,322.5C 367.021,318.519 367.354,314.519 367.5,310.5 Z"/></g>
<g><path style="opacity:0.329" fill="#d7e6f4" d="M 366.5,323.5 C 366.366,325.292 366.699,326.958 367.5,328.5C 366.351,328.209 365.684,327.376 365.5,326C 365.528,324.93 365.861,324.097 366.5,323.5 Z"/></g>
<g><path style="opacity:0.251" fill="#e4eef8" d="M 432.5,323.5 C 433.451,324.919 433.784,326.585 433.5,328.5C 432.5,328.5 431.5,328.5 430.5,328.5C 431.968,327.221 432.635,325.554 432.5,323.5 Z"/></g>
<g><path style="opacity:1" fill="#9fc1e5" d="M 430.5,328.5 C 427.458,329.91 424.291,331.243 421,332.5C 420.283,331.956 419.783,331.289 419.5,330.5C 423.048,329.298 426.715,328.631 430.5,328.5 Z"/></g>
<g><path style="opacity:0.714" fill="#bbd4ed" d="M 379.5,329.5 C 378.539,333.143 376.872,333.476 374.5,330.5C 376.292,330.634 377.958,330.301 379.5,329.5 Z"/></g>
</svg>
